<?xml version="1.0" encoding="UTF-8"?>
<svg id="Capa_1" xmlns="http://www.w3.org/2000/svg" version="1.1" viewBox="0 0 332 325">
  <!-- Generator: Adobe Illustrator 29.5.1, SVG Export Plug-In . SVG Version: 2.1.0 Build 141)  -->
  <defs>
  </defs>
  <path class="st0" d="M184,0c17.59,4.24,16.61,25.8,20.49,40.01,5.38,19.7,16.8,43.19,28.07,59.93.74,1.1,2.49,1.11,3.22,2.77,2.96,6.71-2.1,7.91-2.33,11.8,4.18,8.7,3.33,23.44,13.55,26.98,3.69,1.28,14.79,3.75,18.75,4.25,13.89,1.75,27.41-5.28,29.23,14.76,1.06,11.63-2.86,19.17-10.98,27.01l4.87,1.95c-.99,5.64-2.91,9.45-6.88,13.52,3.67,2.84,6.05.54,9.41,1.02.61.09,10.64,3.62,11.13,3.95,2.67,1.79,16.45,23.26,18.64,27.36,3.91,7.34,11.41,25.94,9.34,33.72s-7.45,11.6-14.99,12c-13.81.73-35.96-10.31-49.52-15.55-4.14-1.6-8.74-5.16-12.96-6.04-4.98-1.04-8.9.29-13.21-.01-7.47-.53-16.17-3.59-23.41-4.41-6.44-.73-9.48,6.45-11.62,11.3-6.31,14.34-9.08,41.11-18.94,52.06-.93,1.04-8.41,4.78-9.85,5.15-14.83,3.85-26-7.67-32.57-19.49-6.08-10.94-8.81-25.05-16.48-34.52-5.62-6.93-14.52-13.95-23.72-15.28-17.23-2.5-23.33,7.27-36.59,14.93-8.72,5.04-28.94,15.62-38.25,16.75-21.83,2.64-31.56-11.72-24.89-31.89,6.11-18.5,40.83-67.53,56.45-79.55,1.11-.86,2.1-1.9,3.54-2.23,1.92.14,6.98,9.69,7.91,11.83s.41,4.43,1.33,6.67c.33.81,5.11,7.91,5.96,8.99.64.82-.02,1.82,2.29,1.27-.04-5.97,5.88-8.43,3.02-15.01l7.98,6c-3.41-9.83-7.57-22.06.97-30.54,9-8.92,27.42-3.88,36.04-12.45-3.89.32-8.56,3.01-10.86-1.73-.51-5.39,4.98-12.44,10.84-9.78,2.84,1.29,2.45,5.28,5.01,6.49,2.5-10.72,1.24-36.25-13.66-36.74-4-.13-23.79,13.64-29.29,15.28-3.81,3.21-6.8,6.51-8.04,11.46,17.6-10.55,20.39,11.23,9.91,21.41-.89.87-7.52,5.71-6.79,2.23.97-4.65,2.11-6.55-.13-11.64l-3.98,3c-.03-4.82-.18-10.32.99-15-4.96,2.97-8.89,17.98-18.26,15.78-1.33-.31-1.97-2.26-3.73-1.78.89,6.23-7.31,2.67-7.05,7.23-1.89,4.06-3.96-6.15-4.53-7.16-.93-1.65-2.88-2.53-3.87-4.13-12.12-19.54-26.51-36.91-37.08-57.92-6.61-13.14-10.35-26.23,8.13-30.91,13.56-3.43,38.84,8.86,51.06,15.72s28.8,26.3,44.21,17.55c6.77-3.84,8.53-10.72,12.68-16.32,7.92-10.68,18.89-22.39,24.83-34.17,5.53-10.98,7.01-23.23,17.35-31.92l15.26-5.97h2ZM24.72,80.34c-3.16-1.64-3.45.89-2.21,3.65,8.02,5.69,14.89,15.15,24.3,18.7,2.2.83,5.62,2.28,7.17-.19-7.41-10.11-17.18-15.42-28.21-20.59-.79-.37-.91-1.49-1.05-1.57ZM210.69,155.18c-4.79,1.49-4.68,11.89,2.8,11.91,13.02.03,5.76-14.58-2.8-11.91ZM117.01,203.01c-7.92-1.7-16.55-2.81-23-8.01,2.59,7.34,10.25,9.8,17.45,10.04,2.02.07,6.46,1.02,5.55-2.04ZM121,209.01c-3.19-2.59-20.77.76-19.99,4.47.83,3.95,18.32-.56,19.99-4.47Z"/>
  <path class="st0" d="M324.65,63.35c4.5,4.02,4.91,9.36,4.23,15.04-1.31,11.02-24.55,47.27-32.47,56.52-.95,1.12-3.28,4.27-4.78,4.01l-12.63-11.93c1.19,7.01,4.86,10.98,9.99,15.5-.12,1-1.55.52-2.26.26-7.41-2.69-25.11-17.09-27.34-24.74-.74-2.51.78-4.45.15-6.02-.84-2.09-6.22-4.26-8.03-6.02-4.51-4.38-4.51-9.8-6.42-15.41.56-2.25,8.12-2.61,10.47-3.53,11.76-4.61,23.47-14.4,34.78-20.22,9.57-4.93,24.93-11.87,34.32-3.48Z"/>
</svg>